<svg width="106" height="60" viewBox="0 0 106 60" fill="none" xmlns="http://www.w3.org/2000/svg">
<path fill-rule="evenodd" clip-rule="evenodd" d="M38.5 6.64868L45.5078 13.2828L32.5 13.2751V45.4624H66.5V33.1557L73.5 39.7825V6.64868H38.5ZM66.1924 32.377L46.3226 13.5666H66.1924V32.377ZM60.0231 40.7542H37.8801V19.1066H39.4453V39.2884H60.0231V40.7542ZM43.1089 49.7478L42.291 51.4324L41.4731 49.7478H40.7871L41.981 51.9939V53.3025H42.6011V51.9939L43.7925 49.7478H43.1089ZM44.1367 53.3025L44.4248 52.4749H45.8018L46.0923 53.3025H46.7368L45.3916 49.7478H44.8374L43.4946 53.3025H44.1367ZM45.1133 50.5022L45.6284 51.9768H44.5981L45.1133 50.5022ZM48.3701 51.8914C48.2806 52.0281 48.2358 52.1786 48.2358 52.343C48.2358 52.6425 48.3408 52.8858 48.5508 53.073C48.7624 53.2585 49.0439 53.3513 49.3955 53.3513C49.7471 53.3513 50.0498 53.2561 50.3037 53.0657L50.5039 53.3025H51.1924L50.6699 52.6848C50.875 52.4049 50.9775 52.046 50.9775 51.6082H50.4624C50.4624 51.8474 50.4128 52.0647 50.3135 52.26L49.6274 51.4495L49.8691 51.2737C50.04 51.15 50.1629 51.0263 50.2378 50.9026C50.3127 50.7773 50.3501 50.6405 50.3501 50.4924C50.3501 50.2678 50.2671 50.0798 50.1011 49.9285C49.9367 49.7755 49.7251 49.699 49.4663 49.699C49.1798 49.699 48.952 49.7804 48.7827 49.9431C48.6134 50.1042 48.5288 50.324 48.5288 50.6023C48.5288 50.7162 48.5557 50.8342 48.6094 50.9563C48.6647 51.0784 48.7616 51.2265 48.8999 51.4006C48.6362 51.5894 48.4596 51.753 48.3701 51.8914ZM49.9741 52.6775C49.8 52.811 49.6128 52.8777 49.4126 52.8777C49.2352 52.8777 49.0936 52.8264 48.9878 52.7239C48.882 52.6213 48.8291 52.4879 48.8291 52.3235C48.8291 52.1331 48.9268 51.9638 49.1221 51.8157L49.1978 51.762L49.9741 52.6775ZM49.3369 51.1028C49.1693 50.8961 49.0854 50.7244 49.0854 50.5876C49.0854 50.4688 49.1196 50.3704 49.188 50.2922C49.2563 50.2141 49.3483 50.175 49.4639 50.175C49.5713 50.175 49.66 50.2084 49.73 50.2751C49.8 50.3403 49.835 50.4192 49.835 50.512C49.835 50.6519 49.7845 50.7667 49.6836 50.8562L49.6079 50.9172L49.3369 51.1028ZM55.123 53.0339C55.3672 52.8207 55.5072 52.5245 55.543 52.1453H54.9277C54.8952 52.3992 54.8179 52.5806 54.6958 52.6897C54.5737 52.7987 54.3914 52.8533 54.1489 52.8533C53.8836 52.8533 53.6818 52.7524 53.5435 52.5505C53.4067 52.3487 53.3384 52.0557 53.3384 51.6716V51.3567C53.3416 50.9775 53.4149 50.6902 53.5581 50.4949C53.703 50.2979 53.9097 50.1995 54.1782 50.1995C54.4093 50.1995 54.5843 50.2564 54.7031 50.3704C54.8236 50.4827 54.8984 50.6666 54.9277 50.9221H55.543C55.5039 50.5331 55.3647 50.232 55.1255 50.0188C54.8862 49.8056 54.5705 49.699 54.1782 49.699C53.8869 49.699 53.6297 49.7681 53.4067 49.9065C53.1854 50.0448 53.0153 50.2418 52.8965 50.4973C52.7777 50.7528 52.7183 51.0483 52.7183 51.3835V51.7156C52.7231 52.0427 52.7842 52.33 52.9014 52.5774C53.0186 52.8248 53.1846 53.016 53.3994 53.1511C53.6159 53.2846 53.8657 53.3513 54.1489 53.3513C54.5542 53.3513 54.8789 53.2455 55.123 53.0339ZM58.7534 52.5359C58.8739 52.2722 58.9341 51.9662 58.9341 51.6179V51.4202C58.9325 51.0735 58.8706 50.7699 58.7485 50.5095C58.6265 50.2475 58.4531 50.0473 58.2285 49.9089C58.0055 49.769 57.7492 49.699 57.4595 49.699C57.1698 49.699 56.9126 49.7698 56.688 49.9114C56.465 50.0513 56.2917 50.254 56.168 50.5193C56.0459 50.7846 55.9849 51.0906 55.9849 51.4373V51.6375C55.9865 51.9776 56.0483 52.2779 56.1704 52.5383C56.2941 52.7987 56.4683 52.9998 56.6929 53.1414C56.9191 53.2813 57.1763 53.3513 57.4644 53.3513C57.7557 53.3513 58.0129 53.2813 58.2358 53.1414C58.4604 52.9998 58.633 52.7979 58.7534 52.5359ZM58.0918 50.5266C58.2415 50.7366 58.3164 51.0385 58.3164 51.4324V51.6179C58.3164 52.0183 58.2423 52.3227 58.0942 52.531C57.9478 52.7393 57.7378 52.8435 57.4644 52.8435C57.1942 52.8435 56.9826 52.7369 56.8296 52.5237C56.6782 52.3105 56.6025 52.0085 56.6025 51.6179V51.4128C56.6058 51.0304 56.6823 50.7349 56.832 50.5266C56.9834 50.3167 57.1925 50.2117 57.4595 50.2117C57.7329 50.2117 57.9437 50.3167 58.0918 50.5266Z" fill="#AFB1B8"/>
</svg>
